PathFileType	4	(X/Y/Z)	/Users/itak/Documents/Research/Walk-IL/dataset/trc/00447_00167.trc
DataRate	CameraRate	NumFrames	NumMarkers	Units	OrigDataRate	OrigDataStartFrame	OrigNumFrames
100.000000	100.000000	4	55	mm	100.000000	147	294
Frame#	Time	RPSI			LPSI			L3			STRN			T10			C7			CLAV			RBAK			LBAK			LSHO			LUPA			LAEL			LAOL			LWTS			LWPS			LFRA			LIFD			LHPS			LHTS			RSHO			RUPA			RAEL			RAOL			RWTS			RWPS			RFRA			RIFD			RHTS			RHPS			RBHD			LFHD			RFHD			LBHD			LHIP			RHIP			RASI			LASI			LKNE			LTHI			LANK			LTIP			LTOE			LMT1			LMT5			LHEE			RKNE			RTHI			RANK			RTIP			RTOE			RMT1			RMT5			RHEE			*53			*54			
		X1	Y1	Z1	X2	Y2	Z2	X3	Y3	Z3	X4	Y4	Z4	X5	Y5	Z5	X6	Y6	Z6	X7	Y7	Z7	X8	Y8	Z8	X9	Y9	Z9	X10	Y10	Z10	X11	Y11	Z11	X12	Y12	Z12	X13	Y13	Z13	X14	Y14	Z14	X15	Y15	Z15	X16	Y16	Z16	X17	Y17	Z17	X18	Y18	Z18	X19	Y19	Z19	X20	Y20	Z20	X21	Y21	Z21	X22	Y22	Z22	X23	Y23	Z23	X24	Y24	Z24	X25	Y25	Z25	X26	Y26	Z26	X27	Y27	Z27	X28	Y28	Z28	X29	Y29	Z29	X30	Y30	Z30	X31	Y31	Z31	X32	Y32	Z32	X33	Y33	Z33	X34	Y34	Z34	X35	Y35	Z35	X36	Y36	Z36	X37	Y37	Z37	X38	Y38	Z38	X39	Y39	Z39	X40	Y40	Z40	X41	Y41	Z41	X42	Y42	Z42	X43	Y43	Z43	X44	Y44	Z44	X45	Y45	Z45	X46	Y46	Z46	X47	Y47	Z47	X48	Y48	Z48	X49	Y49	Z49	X50	Y50	Z50	X51	Y51	Z51	X52	Y52	Z52	X53	Y53	Z53	X54	Y54	Z54	X55	Y55	Z55	

148	1.47	-478.4787902832031	912.8143920898438	-5.481434345245361	-415.5460205078125	917.723388671875	-134.6709594726562	-420.4713439941406	1020.392578125	-43.5131950378418	-119.376708984375	1161.384399414062	77.32621002197266	-401.7881774902344	1144.65966796875	-39.1478271484375	-294.008056640625	1392.203857421875	21.27707672119141	-130.7657623291016	1280.84912109375	67.03063201904297	-404.5939331054688	1287.681640625	75.93827819824219	-292.5036315917969	1350.071044921875	-84.40750885009766	-166.2050170898438	1355.6943359375	-123.3547515869141	-158.8944091796875	1253.597534179688	-236.2640686035156	-161.1100158691406	1052.34326171875	-309.7455444335938	-260.6849365234375	1040.42822265625	-285.50927734375	-98.72309875488281	858.5000610351562	-241.2608642578125	-122.7939147949219	837.9931030273438	-308.549072265625	-136.9058837890625	965.4791870117188	-312.9794311523438	-84.35707092285156	691.3635864257812	-235.1971130371094	-110.8729019165039	757.9688720703125	-302.4568176269531	-72.77717590332031	771.4515991210938	-242.3144226074219	-292.2728271484375	1351.68896484375	196.5939178466797	-348.4816589355469	1296.106567382812	254.9621429443359	-428.9035339355469	1022.11328125	300.1988220214844	-475.2928771972656	1011.648010253906	251.0628662109375	-325.2580261230469	823.6099853515625	265.5751953125	-399.9952697753906	810.5150756835938	309.3137512207031	-429.2985229492188	963.208251953125	306.7299194335938	-327.6177368164062	665.4601440429688	277.1798095703125	-312.9556884765625	724.6908569335938	283.4419860839844	-383.0918579101562	725.120361328125	314.6755676269531	-265.1608276367188	1571.570922851562	113.7084884643555	-76.18914031982422	1596.316528320312	34.44153213500977	-135.5297546386719	1600.608764648438	150.9244079589844	-198.3389739990234	1569.287841796875	-52.34630584716797	-234.1394195556641	809.8952026367188	-177.7920227050781	-436.9672241210938	799.4064331054688	170.1325225830078	-317.5195007324219	834.9442749023438	153.7273559570312	-192.9148254394531	847.480712890625	-66.03812408447266	-129.2900695800781	401.0015869140625	-79.87433624267578	-128.4387512207031	558.5180053710938	-113.8715667724609	-329.5930480957031	31.16919136047363	-176.4398651123047	-184.7602233886719	252.1133880615234	-116.0265731811523	-167.19140625	39.34040832519531	-0.6953208446502686	-246.1319885253906	45.89160537719727	-13.0291576385498	-191.1488037109375	39.18185806274414	-116.370246887207	-401.9776000976562	31.71436882019043	-159.2156372070312	-385.7619018554688	421.2106628417969	180.6354217529297	-392.3929443359375	667.073486328125	198.9328308105469	-751.297119140625	349.0205688476562	-39.98813247680664	-505.2470397949219	373.9180908203125	122.9125595092773	-694.9337768554688	135.9583587646484	-41.87467193603516	-683.93798828125	196.7947387695312	-85.16335296630859	-748.9848022460938	221.3876953125	-5.351114273071289	-738.2973022460938	409.9382629394531	-91.23593902587891	nan	nan	nan	nan	nan	nan	
149	1.48	-460.1989440917969	906.814208984375	4.053629875183105	-396.7528076171875	914.1842041015625	-124.8682861328125	-401.8808288574219	1014.769592285156	-34.42364120483398	-100.920524597168	1157.116577148438	88.07855987548828	-382.6713256835938	1139.386108398438	-30.53807258605957	-275.0811462402344	1388.594116210938	28.75349426269531	-112.087043762207	1276.630249023438	77.24072265625	-386.2492065429688	1283.9833984375	82.30896759033203	-273.0708923339844	1345.582275390625	-77.48706817626953	-145.9796905517578	1350.347412109375	-114.9939880371094	-136.3399353027344	1244.26025390625	-224.7303314208984	-129.2963104248047	1043.356323242188	-294.0734252929688	-228.7061920166016	1025.76318359375	-270.7992248535156	-55.58308029174805	856.8843383789062	-219.7136840820312	-77.03665924072266	833.3023071289062	-286.9114074707031	-99.73772430419922	958.4539184570312	-294.5468444824219	-29.95790863037109	691.7683715820312	-209.8920440673828	-59.66448974609375	754.7817993164062	-279.0078430175781	-23.77624130249023	772.131103515625	-218.5342254638672	-275.3789672851562	1348.862426757812	204.8427429199219	-333.291259765625	1293.593139648438	262.2693481445312	-421.4208374023438	1021.636352539062	305.2788696289062	-465.4215087890625	1013.134826660156	253.8296203613281	-330.1582336425781	816.3571166992188	276.3244018554688	-407.3309631347656	809.6493530273438	317.2710876464844	-425.9640502929688	962.962158203125	312.276611328125	-344.853759765625	659.3828735351562	292.3249816894531	-325.7815246582031	717.5186767578125	297.3762817382812	-396.7456665039062	723.8638916015625	325.7753601074219	-247.4267883300781	1568.314331054688	121.3175430297852	-58.31388092041016	1593.979248046875	42.72769927978516	-118.1057434082031	1598.174194335938	158.9804992675781	-180.0480346679688	1565.984130859375	-44.44307327270508	-215.3296051025391	806.3934936523438	-168.0757598876953	-417.0128173828125	794.595458984375	180.3876342773438	-297.9548645019531	831.3831787109375	164.258056640625	-173.3112030029297	843.3795776367188	-56.38516998291016	-120.3425369262695	394.3801879882812	-74.44021606445312	-115.7784042358398	552.1558837890625	-106.7445526123047	-330.4662780761719	31.60017013549805	-176.7884521484375	-179.9789123535156	247.3566589355469	-112.6781921386719	-168.0042724609375	38.72642135620117	-0.6073542833328247	-246.9184417724609	45.68289566040039	-13.34339141845703	-191.7866516113281	39.32839965820312	-116.8196105957031	-402.9617919921875	32.14309310913086	-159.7077331542969	-349.5745849609375	421.2085266113281	202.7486724853516	-368.5549926757812	665.3203735351562	213.6412506103516	-711.2908325195312	346.909423828125	-21.0089282989502	-467.3909301757812	373.7393493652344	143.9156036376953	-650.3021240234375	135.2793731689453	-19.10246658325195	-640.9010620117188	195.2754669189453	-63.60319137573242	-706.0549926757812	220.1758575439453	15.97733402252197	-699.6065063476562	407.2481079101562	-73.22499084472656	nan	nan	nan	nan	nan	nan	
150	1.49	-441.3455200195312	902.6307373046875	13.56488704681396	-377.3656311035156	911.9259643554688	-114.970100402832	-382.8859558105469	1010.723876953125	-25.27047348022461	-82.45613098144531	1154.296142578125	99.36374664306641	-363.3690185546875	1135.52783203125	-21.78265953063965	-256.212646484375	1385.985717773438	36.5325927734375	-93.55835723876953	1273.798828125	87.90583801269531	-367.8924255371094	1281.362915039062	89.02977752685547	-253.4514770507812	1342.2744140625	-70.12481689453125	-125.524284362793	1346.385620117188	-105.9459533691406	-113.5905990600586	1236.795043945312	-212.5501403808594	-98.33829498291016	1036.573852539062	-277.6563415527344	-197.3555603027344	1013.531372070312	-254.6224517822266	-13.44635009765625	858.60986328125	-197.2335815429688	-32.31469345092773	831.8229370117188	-264.0084838867188	-63.48089599609375	954.02392578125	-275.2654418945312	23.37200355529785	696.490478515625	-182.9229583740234	-9.497942924499512	755.26220703125	-254.0182037353516	24.09353828430176	776.6520385742188	-193.5942993164062	-258.72314453125	1347.14794921875	213.2556304931641	-318.2723388671875	1292.28662109375	269.6892700195312	-413.817138671875	1022.590759277344	310.27197265625	-455.1357116699219	1015.930847167969	256.5001220703125	-335.2314147949219	811.3847045898438	286.4114074707031	-414.5069885253906	810.99609375	324.0904846191406	-422.4021301269531	964.3515625	317.4360961914062	-362.2531433105469	656.4710083007812	305.8247375488281	-338.944091796875	713.169677734375	310.1358947753906	-410.2999572753906	725.3123779296875	335.2793579101562	-229.6481170654297	1566.064819335938	129.3285522460938	-40.38585662841797	1592.39599609375	51.38163757324219	-100.6100387573242	1596.530517578125	167.4326019287109	-161.7538604736328	1563.654907226562	-36.15408325195312	-196.5916442871094	803.7308959960938	-158.1479644775391	-397.2297973632812	791.3436279296875	190.5485382080078	-278.5153503417969	829.2666015625	174.9996337890625	-153.6801300048828	839.8933715820312	-46.35587692260742	-112.8239593505859	388.3795471191406	-69.79029846191406	-104.1438064575195	546.3444213867188	-100.0000076293945	-331.0893249511719	32.06367111206055	-177.0969085693359	-176.0421447753906	243.1523284912109	-109.8941879272461	-168.6946105957031	38.50357437133789	-0.6055480241775513	-247.5625	45.59325790405273	-13.61727619171143	-192.3284606933594	39.50468063354492	-117.148811340332	-403.74365234375	32.73755645751953	-160.2462615966797	-313.2699279785156	423.0041809082031	224.8054504394531	-344.8768920898438	665.152099609375	228.2185516357422	-670.4917602539062	341.4538269042969	-1.631362557411194	-429.0596618652344	373.7353210449219	165.1535491943359	-602.7603149414062	132.3608093261719	5.26912260055542	-595.5588989257812	191.2252960205078	-40.75169372558594	-661.1058959960938	216.1648712158203	38.39542388916016	-660.5859985351562	400.9521789550781	-55.11608123779297	nan	nan	nan	nan	nan	nan	
151	1.5	-421.9197082519531	900.13623046875	23.19308280944824	-357.4268493652344	910.801025390625	-104.9362945556641	-363.3617248535156	1008.224731445312	-16.02330780029297	-63.99668884277344	1153.078369140625	111.205322265625	-343.8135070800781	1133.099853515625	-12.95881271362305	-237.4156188964844	1384.490112304688	44.66261672973633	-75.17465209960938	1272.51708984375	99.06656646728516	-349.4837341308594	1279.900024414062	96.09759521484375	-233.6385498046875	1340.269653320312	-62.26906585693359	-104.8869094848633	1344.042846679688	-96.16182708740234	-90.68717956542969	1231.525146484375	-199.8289184570312	-68.47694396972656	1032.14599609375	-260.6994323730469	-166.9705657958984	1004.090942382812	-237.1429443359375	27.22859573364258	863.8281860351562	-173.9580993652344	10.84296607971191	833.6484985351562	-239.8930053710938	-28.46740341186523	952.2893676757812	-255.2935485839844	75.08246612548828	705.7237548828125	-154.3560333251953	39.00959396362305	759.531005859375	-227.5028686523438	70.31208801269531	785.16357421875	-167.6256408691406	-242.3084106445312	1346.686767578125	221.8375244140625	-303.401123046875	1292.3623046875	277.2485656738281	-405.9450988769531	1025.096313476562	315.2931823730469	-444.3763122558594	1020.164733886719	259.2872924804688	-340.0492553710938	808.8200073242188	295.7470397949219	-421.0554504394531	814.5343627929688	329.7795715332031	-418.3895874023438	967.4605102539062	322.313232421875	-379.1346740722656	656.7017211914062	317.2593688964844	-351.8476257324219	711.6709594726562	321.3766174316406	-423.1746215820312	729.3626708984375	342.9822387695312	-211.8170166015625	1564.996948242188	137.7853698730469	-22.39992713928223	1591.69775390625	60.41743850708008	-83.01889801025391	1595.8427734375	176.2987060546875	-143.4678344726562	1562.441162109375	-27.44458389282227	-177.8764495849609	801.8790893554688	-147.9984588623047	-377.3948059082031	789.726806640625	200.8816375732422	-259.0436706542969	828.6848754882812	185.9304656982422	-133.9157867431641	837.1170043945312	-35.99654769897461	-106.5488052368164	383.2441101074219	-65.75173187255859	-93.37374114990234	541.2660522460938	-93.47178649902344	-331.419677734375	32.70340728759766	-177.3973236083984	-172.7543487548828	239.7462615966797	-107.5445022583008	-169.2670593261719	38.52922821044922	-0.6453415751457214	-248.0640716552734	45.5788688659668	-13.8353214263916	-192.7650604248047	39.65849685668945	-117.3574371337891	-404.2780456542969	33.77354049682617	-160.8719787597656	-277.0673828125	426.614990234375	246.6013641357422	-321.1983337402344	666.5933227539062	242.7198791503906	-628.9468994140625	332.6764526367188	18.16997718811035	-390.4283752441406	373.919677734375	186.4834442138672	-552.51611328125	127.4577865600586	31.2083625793457	-548.0321044921875	184.8332061767578	-16.60888290405273	-614.2855834960938	209.527587890625	61.89743423461914	-621.2391357421875	391.0086669921875	-36.89096069335938	nan	nan	nan	nan	nan	nan	
